<svg xmlns="http://www.w3.org/2000/svg" width="600" height="400"><path d="M301,200L301,136L218,179Z" fill="rgb(133,133,133)" stroke="rgb(133,133,133)" stroke-width="1.51"/><path d="M301,136L247,118L218,179Z" fill="rgb(146,146,146)" stroke="rgb(146,146,146)" stroke-width="1.51"/><path d="M301,200L359,112L301,136Z" fill="rgb(131,131,131)" stroke="rgb(131,131,131)" stroke-width="1.51"/><path d="M301,136L326,38L247,118Z" fill="rgb(154,154,154)" stroke="rgb(154,154,154)" stroke-width="1.51"/><path d="M218,179L248,285L301,200Z" fill="rgb(122,122,122)" stroke="rgb(122,122,122)" stroke-width="1.51"/><path d="M301,200L403,202L359,112Z" fill="rgb(117,117,117)" stroke="rgb(117,117,117)" stroke-width="1.51"/><path d="M218,179L145,248L248,285Z" fill="rgb(127,127,127)" stroke="rgb(127,127,127)" stroke-width="1.51"/><path d="M128,129L144,182L218,179Z" fill="rgb(160,160,160)" stroke="rgb(160,160,160)" stroke-width="1.51"/><path d="M248,285L328,289L301,200Z" fill="rgb(102,102,102)" stroke="rgb(102,102,102)" stroke-width="1.51"/><path d="M359,112L356,60L301,136Z" fill="rgb(142,142,142)" stroke="rgb(142,142,142)" stroke-width="1.51"/><path d="M357,280L403,202L301,200Z" fill="rgb(99,99,99)" stroke="rgb(99,99,99)" stroke-width="1.51"/><path d="M359,112L471,93L356,60Z" fill="rgb(134,134,134)" stroke="rgb(134,134,134)" stroke-width="1.51"/><path d="M247,118L128,129L218,179Z" fill="rgb(159,159,159)" stroke="rgb(159,159,159)" stroke-width="1.51"/><path d="M201,17L128,129L247,118Z" fill="rgb(179,179,179)" stroke="rgb(179,179,179)" stroke-width="1.51"/><path d="M356,60L326,38L301,136Z" fill="rgb(152,152,152)" stroke="rgb(152,152,152)" stroke-width="1.51"/><path d="M144,182L145,248L218,179Z" fill="rgb(146,146,146)" stroke="rgb(146,146,146)" stroke-width="1.51"/><path d="M93,183L145,248L144,182Z" fill="rgb(155,155,155)" stroke="rgb(155,155,155)" stroke-width="1.51"/><path d="M328,289L357,280L301,200Z" fill="rgb(95,95,95)" stroke="rgb(95,95,95)" stroke-width="1.51"/><path d="M236,-8L201,17L247,118Z" fill="rgb(187,187,187)" stroke="rgb(187,187,187)" stroke-width="1.51"/><path d="M248,285L318,344L328,289Z" fill="rgb(87,87,87)" stroke="rgb(87,87,87)" stroke-width="1.51"/><path d="M328,289L318,344L357,280Z" fill="rgb(80,80,80)" stroke="rgb(80,80,80)" stroke-width="1.51"/><path d="M163,327L230,331L248,285Z" fill="rgb(101,101,101)" stroke="rgb(101,101,101)" stroke-width="1.51"/><path d="M128,129L93,183L144,182Z" fill="rgb(170,170,170)" stroke="rgb(170,170,170)" stroke-width="1.51"/><path d="M326,38L236,-8L247,118Z" fill="rgb(175,175,175)" stroke="rgb(175,175,175)" stroke-width="1.51"/><path d="M230,331L318,344L248,285Z" fill="rgb(89,89,89)" stroke="rgb(89,89,89)" stroke-width="1.51"/><path d="M145,248L163,327L248,285Z" fill="rgb(116,116,116)" stroke="rgb(116,116,116)" stroke-width="1.51"/><path d="M302,431L370,371L318,344Z" fill="rgb(59,59,59)" stroke="rgb(59,59,59)" stroke-width="1.51"/><path d="M78,285L163,327L145,248Z" fill="rgb(128,128,128)" stroke="rgb(128,128,128)" stroke-width="1.51"/><path d="M403,202L471,93L359,112Z" fill="rgb(116,116,116)" stroke="rgb(116,116,116)" stroke-width="1.51"/><path d="M459,291L452,202L403,202Z" fill="rgb(81,81,81)" stroke="rgb(81,81,81)" stroke-width="1.51"/><path d="M459,291L403,202L357,280Z" fill="rgb(80,80,80)" stroke="rgb(80,80,80)" stroke-width="1.51"/><path d="M201,17L139,17L128,129Z" fill="rgb(199,199,199)" stroke="rgb(199,199,199)" stroke-width="1.51"/><path d="M128,129L47,118L93,183Z" fill="rgb(184,184,184)" stroke="rgb(184,184,184)" stroke-width="1.51"/><path d="M125,-62L139,17L201,17Z" fill="rgb(218,218,218)" stroke="rgb(218,218,218)" stroke-width="1.51"/><path d="M452,202L471,93L403,202Z" fill="rgb(100,100,100)" stroke="rgb(100,100,100)" stroke-width="1.51"/><path d="M396,-55L273,-61L326,38Z" fill="rgb(178,178,178)" stroke="rgb(178,178,178)" stroke-width="1.51"/><path d="M326,38L273,-61L236,-8Z" fill="rgb(189,189,189)" stroke="rgb(189,189,189)" stroke-width="1.51"/><path d="M139,17L91,33L128,129Z" fill="rgb(205,205,205)" stroke="rgb(205,205,205)" stroke-width="1.51"/><path d="M93,183L78,285L145,248Z" fill="rgb(148,148,148)" stroke="rgb(148,148,148)" stroke-width="1.51"/><path d="M-31,189L78,285L93,183Z" fill="rgb(168,168,168)" stroke="rgb(168,168,168)" stroke-width="1.51"/><path d="M91,33L47,118L128,129Z" fill="rgb(201,201,201)" stroke="rgb(201,201,201)" stroke-width="1.51"/><path d="M318,344L370,371L357,280Z" fill="rgb(70,70,70)" stroke="rgb(70,70,70)" stroke-width="1.51"/><path d="M302,431L318,344L230,331Z" fill="rgb(71,71,71)" stroke="rgb(71,71,71)" stroke-width="1.51"/><path d="M236,-8L125,-62L201,17Z" fill="rgb(211,211,211)" stroke="rgb(211,211,211)" stroke-width="1.51"/><path d="M139,17L125,-62L91,33Z" fill="rgb(227,227,227)" stroke="rgb(227,227,227)" stroke-width="1.51"/><path d="M396,-55L326,38L356,60Z" fill="rgb(167,167,167)" stroke="rgb(167,167,167)" stroke-width="1.51"/><path d="M452,202L505,96L471,93Z" fill="rgb(104,104,104)" stroke="rgb(104,104,104)" stroke-width="1.51"/><path d="M370,371L459,291L357,280Z" fill="rgb(66,66,66)" stroke="rgb(66,66,66)" stroke-width="1.51"/><path d="M471,93L465,54L356,60Z" fill="rgb(133,133,133)" stroke="rgb(133,133,133)" stroke-width="1.51"/><path d="M471,93L505,96L465,54Z" fill="rgb(119,119,119)" stroke="rgb(119,119,119)" stroke-width="1.51"/><path d="M537,180L505,96L452,202Z" fill="rgb(91,91,91)" stroke="rgb(91,91,91)" stroke-width="1.51"/><path d="M449,-14L356,60L465,54Z" fill="rgb(146,146,146)" stroke="rgb(146,146,146)" stroke-width="1.51"/><path d="M449,-14L396,-55L356,60Z" fill="rgb(162,162,162)" stroke="rgb(162,162,162)" stroke-width="1.51"/><path d="M527,46L449,-14L465,54Z" fill="rgb(135,135,135)" stroke="rgb(135,135,135)" stroke-width="1.51"/><path d="M248,442L302,431L230,331Z" fill="rgb(67,67,67)" stroke="rgb(67,67,67)" stroke-width="1.51"/><path d="M248,442L230,331L132,426Z" fill="rgb(78,78,78)" stroke="rgb(78,78,78)" stroke-width="1.51"/><path d="M370,371L468,343L459,291Z" fill="rgb(53,53,53)" stroke="rgb(53,53,53)" stroke-width="1.51"/><path d="M522,263L537,180L452,202Z" fill="rgb(74,74,74)" stroke="rgb(74,74,74)" stroke-width="1.51"/><path d="M406,410L468,343L370,371Z" fill="rgb(45,45,45)" stroke="rgb(45,45,45)" stroke-width="1.51"/><path d="M-10,47L2,103L47,118Z" fill="rgb(220,220,220)" stroke="rgb(220,220,220)" stroke-width="1.51"/><path d="M214,-102L125,-62L236,-8Z" fill="rgb(210,210,210)" stroke="rgb(210,210,210)" stroke-width="1.51"/><path d="M47,118L-31,189L93,183Z" fill="rgb(189,189,189)" stroke="rgb(189,189,189)" stroke-width="1.51"/><path d="M-10,47L47,118L91,33Z" fill="rgb(221,221,221)" stroke="rgb(221,221,221)" stroke-width="1.51"/><path d="M522,263L452,202L459,291Z" fill="rgb(68,68,68)" stroke="rgb(68,68,68)" stroke-width="1.51"/><path d="M468,343L522,263L459,291Z" fill="rgb(53,53,53)" stroke="rgb(53,53,53)" stroke-width="1.51"/><path d="M132,426L230,331L163,327Z" fill="rgb(95,95,95)" stroke="rgb(95,95,95)" stroke-width="1.51"/><path d="M273,-61L214,-102L236,-8Z" fill="rgb(198,198,198)" stroke="rgb(198,198,198)" stroke-width="1.51"/><path d="M312,-120L214,-102L273,-61Z" fill="rgb(192,192,192)" stroke="rgb(192,192,192)" stroke-width="1.51"/><path d="M439,449L406,410L387,493Z" fill="rgb(39,39,39)" stroke="rgb(39,39,39)" stroke-width="1.51"/><path d="M302,431L406,410L370,371Z" fill="rgb(49,49,49)" stroke="rgb(49,49,49)" stroke-width="1.51"/><path d="M78,285L46,343L163,327Z" fill="rgb(125,125,125)" stroke="rgb(125,125,125)" stroke-width="1.51"/><path d="M-16,283L46,343L78,285Z" fill="rgb(142,142,142)" stroke="rgb(142,142,142)" stroke-width="1.51"/><path d="M125,-62L44,-14L91,33Z" fill="rgb(234,234,234)" stroke="rgb(234,234,234)" stroke-width="1.51"/><path d="M505,96L527,46L465,54Z" fill="rgb(120,120,120)" stroke="rgb(120,120,120)" stroke-width="1.51"/><path d="M476,-95L397,-122L396,-55Z" fill="rgb(157,157,157)" stroke="rgb(157,157,157)" stroke-width="1.51"/><path d="M607,42L527,46L505,96Z" fill="rgb(111,111,111)" stroke="rgb(111,111,111)" stroke-width="1.51"/><path d="M46,343L132,426L163,327Z" fill="rgb(106,106,106)" stroke="rgb(106,106,106)" stroke-width="1.51"/><path d="M397,-122L312,-120L396,-55Z" fill="rgb(169,169,169)" stroke="rgb(169,169,169)" stroke-width="1.51"/><path d="M396,-55L312,-120L273,-61Z" fill="rgb(179,179,179)" stroke="rgb(179,179,179)" stroke-width="1.51"/><path d="M2,103L-31,189L47,118Z" fill="rgb(205,205,205)" stroke="rgb(205,205,205)" stroke-width="1.51"/><path d="M-99,98L-31,189L2,103Z" fill="rgb(209,209,209)" stroke="rgb(209,209,209)" stroke-width="1.51"/><path d="M44,-14L-10,47L91,33Z" fill="rgb(237,237,237)" stroke="rgb(237,237,237)" stroke-width="1.51"/><path d="M-31,189L-16,283L78,285Z" fill="rgb(165,165,165)" stroke="rgb(165,165,165)" stroke-width="1.51"/><path d="M537,180L626,140L505,96Z" fill="rgb(86,86,86)" stroke="rgb(86,86,86)" stroke-width="1.51"/><path d="M522,263L583,184L537,180Z" fill="rgb(67,67,67)" stroke="rgb(67,67,67)" stroke-width="1.51"/><path d="M608,251L583,184L522,263Z" fill="rgb(56,56,56)" stroke="rgb(56,56,56)" stroke-width="1.51"/><path d="M476,-95L396,-55L449,-14Z" fill="rgb(153,153,153)" stroke="rgb(153,153,153)" stroke-width="1.51"/><path d="M323,513L387,493L302,431Z" fill="rgb(52,52,52)" stroke="rgb(52,52,52)" stroke-width="1.51"/><path d="M132,426L197,484L248,442Z" fill="rgb(80,80,80)" stroke="rgb(80,80,80)" stroke-width="1.51"/><path d="M44,-14L-29,-30L-10,47Z" fill="rgb(254,254,254)" stroke="rgb(254,254,254)" stroke-width="1.51"/><path d="M125,-62L83,-101L44,-14Z" fill="rgb(235,235,235)" stroke="rgb(235,235,235)" stroke-width="1.51"/><path d="M141,-137L83,-101L125,-62Z" fill="rgb(227,227,227)" stroke="rgb(227,227,227)" stroke-width="1.51"/><path d="M141,-137L125,-62L214,-102Z" fill="rgb(217,217,217)" stroke="rgb(217,217,217)" stroke-width="1.51"/><path d="M397,-122L141,-137L312,-120Z" fill="rgb(188,188,188)" stroke="rgb(188,188,188)" stroke-width="1.51"/><path d="M312,-120L141,-137L214,-102Z" fill="rgb(202,202,202)" stroke="rgb(202,202,202)" stroke-width="1.51"/><path d="M468,343L552,359L522,263Z" fill="rgb(41,41,41)" stroke="rgb(41,41,41)" stroke-width="1.51"/><path d="M406,410L439,449L468,343Z" fill="rgb(35,35,35)" stroke="rgb(35,35,35)" stroke-width="1.51"/><path d="M387,493L406,410L302,431Z" fill="rgb(47,47,47)" stroke="rgb(47,47,47)" stroke-width="1.51"/><path d="M607,42L541,-18L527,46Z" fill="rgb(120,120,120)" stroke="rgb(120,120,120)" stroke-width="1.51"/><path d="M527,46L541,-18L449,-14Z" fill="rgb(138,138,138)" stroke="rgb(138,138,138)" stroke-width="1.51"/><path d="M541,-18L476,-95L449,-14Z" fill="rgb(143,143,143)" stroke="rgb(143,143,143)" stroke-width="1.51"/><path d="M-31,189L-74,228L-16,283Z" fill="rgb(173,173,173)" stroke="rgb(173,173,173)" stroke-width="1.51"/><path d="M41,450L132,426L46,343Z" fill="rgb(104,104,104)" stroke="rgb(104,104,104)" stroke-width="1.51"/><path d="M41,450L151,507L132,426Z" fill="rgb(97,97,97)" stroke="rgb(97,97,97)" stroke-width="1.51"/><path d="M-99,98L-74,228L-31,189Z" fill="rgb(194,194,194)" stroke="rgb(194,194,194)" stroke-width="1.51"/><path d="M560,430L552,359L468,343Z" fill="rgb(25,25,25)" stroke="rgb(25,25,25)" stroke-width="1.51"/><path d="M560,430L600,332L552,359Z" fill="rgb(19,19,19)" stroke="rgb(19,19,19)" stroke-width="1.51"/><path d="M323,513L302,431L248,442Z" fill="rgb(61,61,61)" stroke="rgb(61,61,61)" stroke-width="1.51"/><path d="M197,484L323,513L248,442Z" fill="rgb(68,68,68)" stroke="rgb(68,68,68)" stroke-width="1.51"/><path d="M600,332L608,251L522,263Z" fill="rgb(41,41,41)" stroke="rgb(41,41,41)" stroke-width="1.51"/><path d="M583,184L626,140L537,180Z" fill="rgb(72,72,72)" stroke="rgb(72,72,72)" stroke-width="1.51"/><path d="M83,-101L-29,-30L44,-14Z" fill="rgb(247,247,247)" stroke="rgb(247,247,247)" stroke-width="1.51"/><path d="M-10,47L-99,98L2,103Z" fill="rgb(225,225,225)" stroke="rgb(225,225,225)" stroke-width="1.51"/><path d="M132,426L151,507L197,484Z" fill="rgb(86,86,86)" stroke="rgb(86,86,86)" stroke-width="1.51"/><path d="M197,484L151,507L323,513Z" fill="rgb(74,74,74)" stroke="rgb(74,74,74)" stroke-width="1.51"/><path d="M41,450L46,343L-30,413Z" fill="rgb(115,115,115)" stroke="rgb(115,115,115)" stroke-width="1.51"/><path d="M-35,379L46,343L-16,283Z" fill="rgb(140,140,140)" stroke="rgb(140,140,140)" stroke-width="1.51"/><path d="M702,184L626,140L583,184Z" fill="rgb(68,68,68)" stroke="rgb(68,68,68)" stroke-width="1.51"/><path d="M626,140L607,42L505,96Z" fill="rgb(95,95,95)" stroke="rgb(95,95,95)" stroke-width="1.51"/><path d="M541,-18L531,-98L476,-95Z" fill="rgb(137,137,137)" stroke="rgb(137,137,137)" stroke-width="1.51"/><path d="M-89,381L-35,379L-16,283Z" fill="rgb(136,136,136)" stroke="rgb(136,136,136)" stroke-width="1.51"/><path d="M-105,56L-99,98L-10,47Z" fill="rgb(231,231,231)" stroke="rgb(231,231,231)" stroke-width="1.51"/><path d="M703,150L673,51L626,140Z" fill="rgb(84,84,84)" stroke="rgb(84,84,84)" stroke-width="1.51"/><path d="M552,359L600,332L522,263Z" fill="rgb(35,35,35)" stroke="rgb(35,35,35)" stroke-width="1.51"/><path d="M560,430L468,343L439,449Z" fill="rgb(26,26,26)" stroke="rgb(26,26,26)" stroke-width="1.51"/><path d="M618,-43L531,-98L541,-18Z" fill="rgb(127,127,127)" stroke="rgb(127,127,127)" stroke-width="1.51"/><path d="M476,-95L531,-98L397,-122Z" fill="rgb(147,147,147)" stroke="rgb(147,147,147)" stroke-width="1.51"/><path d="M-35,379L-30,413L46,343Z" fill="rgb(126,126,126)" stroke="rgb(126,126,126)" stroke-width="1.51"/><path d="M-89,381L-30,413L-35,379Z" fill="rgb(122,122,122)" stroke="rgb(122,122,122)" stroke-width="1.51"/><path d="M-29,-30L-105,56L-10,47Z" fill="rgb(246,246,246)" stroke="rgb(246,246,246)" stroke-width="1.51"/><path d="M387,493L439,517L439,449Z" fill="rgb(37,37,37)" stroke="rgb(37,37,37)" stroke-width="1.51"/><path d="M323,513L439,517L387,493Z" fill="rgb(44,44,44)" stroke="rgb(44,44,44)" stroke-width="1.51"/><path d="M543,527L560,430L439,449Z" fill="rgb(22,22,22)" stroke="rgb(22,22,22)" stroke-width="1.51"/><path d="M-74,228L-118,270L-16,283Z" fill="rgb(164,164,164)" stroke="rgb(164,164,164)" stroke-width="1.51"/><path d="M-99,98L-118,270L-74,228Z" fill="rgb(185,185,185)" stroke="rgb(185,185,185)" stroke-width="1.51"/><path d="M-105,56L-118,270L-99,98Z" fill="rgb(205,205,205)" stroke="rgb(205,205,205)" stroke-width="1.51"/><path d="M607,42L618,-43L541,-18Z" fill="rgb(121,121,121)" stroke="rgb(121,121,121)" stroke-width="1.51"/><path d="M673,51L618,-43L607,42Z" fill="rgb(114,114,114)" stroke="rgb(114,114,114)" stroke-width="1.51"/><path d="M-118,270L-89,381L-16,283Z" fill="rgb(147,147,147)" stroke="rgb(147,147,147)" stroke-width="1.51"/><path d="M-41,-124L-29,-30L83,-101Z" fill="rgb(254,254,254)" stroke="rgb(254,254,254)" stroke-width="1.51"/><path d="M-41,-124L-91,-58L-29,-30Z" fill="rgb(255,255,255)" stroke="rgb(255,255,255)" stroke-width="1.51"/><path d="M-29,-30L-91,-58L-105,56Z" fill="rgb(255,255,255)" stroke="rgb(255,255,255)" stroke-width="1.51"/><path d="M141,-137L-41,-124L83,-101Z" fill="rgb(240,240,240)" stroke="rgb(240,240,240)" stroke-width="1.51"/><path d="M626,140L673,51L607,42Z" fill="rgb(95,95,95)" stroke="rgb(95,95,95)" stroke-width="1.51"/><path d="M702,184L583,184L608,251Z" fill="rgb(58,58,58)" stroke="rgb(58,58,58)" stroke-width="1.51"/><path d="M-26,508L53,538L41,450Z" fill="rgb(114,114,114)" stroke="rgb(114,114,114)" stroke-width="1.51"/><path d="M41,450L53,538L151,507Z" fill="rgb(102,102,102)" stroke="rgb(102,102,102)" stroke-width="1.51"/><path d="M151,507L53,538L323,513Z" fill="rgb(83,83,83)" stroke="rgb(83,83,83)" stroke-width="1.51"/><path d="M323,513L53,538L439,517Z" fill="rgb(65,65,65)" stroke="rgb(65,65,65)" stroke-width="1.51"/><path d="M-26,508L41,450L-30,413Z" fill="rgb(119,119,119)" stroke="rgb(119,119,119)" stroke-width="1.51"/><path d="M586,491L594,456L560,430Z" fill="rgb(6,6,6)" stroke="rgb(6,6,6)" stroke-width="1.51"/><path d="M560,430L672,406L600,332Z" fill="rgb(5,5,5)" stroke="rgb(5,5,5)" stroke-width="1.51"/><path d="M694,282L702,184L608,251Z" fill="rgb(49,49,49)" stroke="rgb(49,49,49)" stroke-width="1.51"/><path d="M694,282L608,251L600,332Z" fill="rgb(36,36,36)" stroke="rgb(36,36,36)" stroke-width="1.51"/><path d="M702,184L703,150L626,140Z" fill="rgb(71,71,71)" stroke="rgb(71,71,71)" stroke-width="1.51"/><path d="M672,348L694,282L600,332Z" fill="rgb(27,27,27)" stroke="rgb(27,27,27)" stroke-width="1.51"/><path d="M672,406L672,348L600,332Z" fill="rgb(16,16,16)" stroke="rgb(16,16,16)" stroke-width="1.51"/><path d="M-117,446L-26,508L-30,413Z" fill="rgb(119,119,119)" stroke="rgb(119,119,119)" stroke-width="1.51"/><path d="M594,456L672,406L560,430Z" fill="rgb(0,0,0)" stroke="rgb(0,0,0)" stroke-width="1.51"/><path d="M439,517L543,527L439,449Z" fill="rgb(29,29,29)" stroke="rgb(29,29,29)" stroke-width="1.51"/><path d="M53,538L543,527L439,517Z" fill="rgb(51,51,51)" stroke="rgb(51,51,51)" stroke-width="1.51"/><path d="M543,527L586,491L560,430Z" fill="rgb(11,11,11)" stroke="rgb(11,11,11)" stroke-width="1.51"/><path d="M-41,-124L-118,-101L-91,-58Z" fill="rgb(255,255,255)" stroke="rgb(255,255,255)" stroke-width="1.51"/><path d="M-91,-58L-118,-101L-105,56Z" fill="rgb(255,255,255)" stroke="rgb(255,255,255)" stroke-width="1.51"/><path d="M-105,56L-118,-101L-118,270Z" fill="rgb(228,228,228)" stroke="rgb(228,228,228)" stroke-width="1.51"/><path d="M672,348L672,406L694,282Z" fill="rgb(21,21,21)" stroke="rgb(21,21,21)" stroke-width="1.51"/><path d="M703,494L672,406L594,456Z" fill="rgb(0,0,0)" stroke="rgb(0,0,0)" stroke-width="1.51"/><path d="M-118,270L-117,446L-89,381Z" fill="rgb(130,130,130)" stroke="rgb(130,130,130)" stroke-width="1.51"/><path d="M-89,381L-117,446L-30,413Z" fill="rgb(119,119,119)" stroke="rgb(119,119,119)" stroke-width="1.51"/><path d="M703,150L691,-38L673,51Z" fill="rgb(102,102,102)" stroke="rgb(102,102,102)" stroke-width="1.51"/><path d="M673,51L691,-38L618,-43Z" fill="rgb(119,119,119)" stroke="rgb(119,119,119)" stroke-width="1.51"/><path d="M618,-43L629,-138L531,-98Z" fill="rgb(120,120,120)" stroke="rgb(120,120,120)" stroke-width="1.51"/><path d="M531,-98L629,-138L397,-122Z" fill="rgb(136,136,136)" stroke="rgb(136,136,136)" stroke-width="1.51"/><path d="M397,-122L629,-138L141,-137Z" fill="rgb(165,165,165)" stroke="rgb(165,165,165)" stroke-width="1.51"/><path d="M666,-97L629,-138L618,-43Z" fill="rgb(119,119,119)" stroke="rgb(119,119,119)" stroke-width="1.51"/><path d="M691,-38L666,-97L618,-43Z" fill="rgb(119,119,119)" stroke="rgb(119,119,119)" stroke-width="1.51"/><path d="M-117,446L-72,534L-26,508Z" fill="rgb(119,119,119)" stroke="rgb(119,119,119)" stroke-width="1.51"/><path d="M-26,508L-72,534L53,538Z" fill="rgb(119,119,119)" stroke="rgb(119,119,119)" stroke-width="1.51"/><path d="M586,491L703,494L594,456Z" fill="rgb(0,0,0)" stroke="rgb(0,0,0)" stroke-width="1.51"/><path d="M672,406L703,494L694,282Z" fill="rgb(2,3,2)" stroke="rgb(2,3,2)" stroke-width="1.51"/><path d="M694,282L703,494L702,184Z" fill="rgb(27,27,27)" stroke="rgb(27,27,27)" stroke-width="1.51"/><path d="M702,184L703,494L703,150Z" fill="rgb(39,39,39)" stroke="rgb(39,39,39)" stroke-width="1.51"/><path d="M543,527L703,494L586,491Z" fill="rgb(0,0,0)" stroke="rgb(0,0,0)" stroke-width="1.51"/></svg>